<mxfile host="app.diagrams.net" modified="2023-06-02T05:27:20.585Z" agent="Mozilla/5.0 (Windows NT 10.0; Win64; x64) AppleWebKit/537.36 (KHTML, like Gecko) Chrome/113.0.0.0 Safari/537.36" etag="WrqxKs8YbL0JUbYOVqsB" version="21.3.6" type="device">
  <diagram name="Page-1" id="gHxmdrKgSVCfnPncage1">
    <mxGraphModel dx="1120" dy="452" grid="1" gridSize="10" guides="1" tooltips="1" connect="1" arrows="1" fold="1" page="1" pageScale="1" pageWidth="827" pageHeight="1169" math="0" shadow="0">
      <root>
        <mxCell id="0" />
        <mxCell id="1" parent="0" />
        <mxCell id="yhvQ6yoLqw5LFzrh1Ywp-2" value="&lt;font style=&quot;font-size: 14px;&quot;&gt;QuestionsPage&lt;/font&gt;" style="shape=umlLifeline;perimeter=lifelinePerimeter;whiteSpace=wrap;html=1;container=1;dropTarget=0;collapsible=0;recursiveResize=0;outlineConnect=0;portConstraint=eastwest;newEdgeStyle={&quot;edgeStyle&quot;:&quot;elbowEdgeStyle&quot;,&quot;elbow&quot;:&quot;vertical&quot;,&quot;curved&quot;:0,&quot;rounded&quot;:0};" parent="1" vertex="1">
          <mxGeometry x="40" y="170" width="100" height="450" as="geometry" />
        </mxCell>
        <mxCell id="yhvQ6yoLqw5LFzrh1Ywp-8" value="" style="html=1;points=[];perimeter=orthogonalPerimeter;outlineConnect=0;targetShapes=umlLifeline;portConstraint=eastwest;newEdgeStyle={&quot;edgeStyle&quot;:&quot;elbowEdgeStyle&quot;,&quot;elbow&quot;:&quot;vertical&quot;,&quot;curved&quot;:0,&quot;rounded&quot;:0};" parent="yhvQ6yoLqw5LFzrh1Ywp-2" vertex="1">
          <mxGeometry x="40" y="70" width="10" height="90" as="geometry" />
        </mxCell>
        <mxCell id="yhvQ6yoLqw5LFzrh1Ywp-9" value="&lt;font style=&quot;font-size: 14px;&quot;&gt;Login&lt;/font&gt;" style="html=1;verticalAlign=bottom;startArrow=oval;endArrow=block;startSize=8;edgeStyle=elbowEdgeStyle;elbow=vertical;curved=0;rounded=0;" parent="yhvQ6yoLqw5LFzrh1Ywp-2" target="yhvQ6yoLqw5LFzrh1Ywp-8" edge="1">
          <mxGeometry relative="1" as="geometry">
            <mxPoint x="-20" y="70" as="sourcePoint" />
          </mxGeometry>
        </mxCell>
        <mxCell id="yhvQ6yoLqw5LFzrh1Ywp-3" value="&lt;font style=&quot;font-size: 16px;&quot;&gt;Process: User asks a question and votes on the available answers&lt;/font&gt;" style="text;html=1;strokeColor=none;fillColor=none;align=left;verticalAlign=middle;whiteSpace=wrap;rounded=0;" parent="1" vertex="1">
          <mxGeometry x="40" y="40" width="510" height="40" as="geometry" />
        </mxCell>
        <mxCell id="yhvQ6yoLqw5LFzrh1Ywp-4" value="&lt;font style=&quot;font-size: 14px;&quot;&gt;AskPage&lt;/font&gt;" style="shape=umlLifeline;perimeter=lifelinePerimeter;whiteSpace=wrap;html=1;container=1;dropTarget=0;collapsible=0;recursiveResize=0;outlineConnect=0;portConstraint=eastwest;newEdgeStyle={&quot;edgeStyle&quot;:&quot;elbowEdgeStyle&quot;,&quot;elbow&quot;:&quot;vertical&quot;,&quot;curved&quot;:0,&quot;rounded&quot;:0};" parent="1" vertex="1">
          <mxGeometry x="245" y="170" width="100" height="300" as="geometry" />
        </mxCell>
        <mxCell id="yhvQ6yoLqw5LFzrh1Ywp-5" value="&lt;font style=&quot;font-size: 14px;&quot;&gt;ProfilePage&lt;/font&gt;" style="shape=umlLifeline;perimeter=lifelinePerimeter;whiteSpace=wrap;html=1;container=1;dropTarget=0;collapsible=0;recursiveResize=0;outlineConnect=0;portConstraint=eastwest;newEdgeStyle={&quot;edgeStyle&quot;:&quot;elbowEdgeStyle&quot;,&quot;elbow&quot;:&quot;vertical&quot;,&quot;curved&quot;:0,&quot;rounded&quot;:0};" parent="1" vertex="1">
          <mxGeometry x="430" y="170" width="100" height="460" as="geometry" />
        </mxCell>
        <mxCell id="yhvQ6yoLqw5LFzrh1Ywp-6" value="&lt;font style=&quot;font-size: 14px;&quot;&gt;SingleQuestionPage&lt;/font&gt;" style="shape=umlLifeline;perimeter=lifelinePerimeter;whiteSpace=wrap;html=1;container=1;dropTarget=0;collapsible=0;recursiveResize=0;outlineConnect=0;portConstraint=eastwest;newEdgeStyle={&quot;edgeStyle&quot;:&quot;elbowEdgeStyle&quot;,&quot;elbow&quot;:&quot;vertical&quot;,&quot;curved&quot;:0,&quot;rounded&quot;:0};" parent="1" vertex="1">
          <mxGeometry x="610" y="170" width="130" height="500" as="geometry" />
        </mxCell>
        <mxCell id="yhvQ6yoLqw5LFzrh1Ywp-7" value="" style="rounded=0;whiteSpace=wrap;html=1;direction=south;" parent="1" vertex="1">
          <mxGeometry x="290" y="220" width="10" height="120" as="geometry" />
        </mxCell>
        <mxCell id="yhvQ6yoLqw5LFzrh1Ywp-10" value="" style="endArrow=classic;html=1;rounded=0;" parent="1" source="yhvQ6yoLqw5LFzrh1Ywp-8" edge="1">
          <mxGeometry width="50" height="50" relative="1" as="geometry">
            <mxPoint x="390" y="360" as="sourcePoint" />
            <mxPoint x="290" y="249" as="targetPoint" />
          </mxGeometry>
        </mxCell>
        <mxCell id="yhvQ6yoLqw5LFzrh1Ywp-11" value="Click the Ask Question Button" style="text;html=1;strokeColor=none;fillColor=none;align=center;verticalAlign=middle;whiteSpace=wrap;rounded=0;" parent="1" vertex="1">
          <mxGeometry x="120" y="220" width="120" height="30" as="geometry" />
        </mxCell>
        <mxCell id="yhvQ6yoLqw5LFzrh1Ywp-12" value="" style="endArrow=none;dashed=1;html=1;dashPattern=1 3;strokeWidth=2;rounded=0;exitX=0.917;exitY=1.2;exitDx=0;exitDy=0;exitPerimeter=0;" parent="1" source="yhvQ6yoLqw5LFzrh1Ywp-7" target="yhvQ6yoLqw5LFzrh1Ywp-2" edge="1">
          <mxGeometry width="50" height="50" relative="1" as="geometry">
            <mxPoint x="390" y="350" as="sourcePoint" />
            <mxPoint x="440" y="300" as="targetPoint" />
          </mxGeometry>
        </mxCell>
        <mxCell id="yhvQ6yoLqw5LFzrh1Ywp-13" value="" style="shape=mxgraph.arrows2.wedgeArrow;html=1;bendable=0;startWidth=6;fillColor=strokeColor;defaultFillColor=invert;defaultGradientColor=invert;rounded=0;" parent="1" edge="1">
          <mxGeometry width="100" height="100" relative="1" as="geometry">
            <mxPoint x="100" y="330" as="sourcePoint" />
            <mxPoint x="90" y="330" as="targetPoint" />
          </mxGeometry>
        </mxCell>
        <mxCell id="yhvQ6yoLqw5LFzrh1Ywp-17" value="After question is posted" style="text;html=1;strokeColor=none;fillColor=none;align=center;verticalAlign=middle;whiteSpace=wrap;rounded=0;" parent="1" vertex="1">
          <mxGeometry x="125" y="300" width="120" height="30" as="geometry" />
        </mxCell>
        <mxCell id="yhvQ6yoLqw5LFzrh1Ywp-18" value="" style="rounded=0;whiteSpace=wrap;html=1;direction=south;" parent="1" vertex="1">
          <mxGeometry x="85" y="470" width="10" height="120" as="geometry" />
        </mxCell>
        <mxCell id="yhvQ6yoLqw5LFzrh1Ywp-19" value="" style="endArrow=classic;html=1;rounded=0;entryX=0.25;entryY=1;entryDx=0;entryDy=0;" parent="1" source="yhvQ6yoLqw5LFzrh1Ywp-2" target="yhvQ6yoLqw5LFzrh1Ywp-20" edge="1">
          <mxGeometry width="50" height="50" relative="1" as="geometry">
            <mxPoint x="390" y="550" as="sourcePoint" />
            <mxPoint x="440" y="500" as="targetPoint" />
          </mxGeometry>
        </mxCell>
        <mxCell id="yhvQ6yoLqw5LFzrh1Ywp-20" value="" style="rounded=0;whiteSpace=wrap;html=1;direction=south;" parent="1" vertex="1">
          <mxGeometry x="475" y="480" width="10" height="50" as="geometry" />
        </mxCell>
        <mxCell id="yhvQ6yoLqw5LFzrh1Ywp-21" value="Access previously asked questions" style="text;html=1;strokeColor=none;fillColor=none;align=center;verticalAlign=middle;whiteSpace=wrap;rounded=0;" parent="1" vertex="1">
          <mxGeometry x="185" y="480" width="220" height="10" as="geometry" />
        </mxCell>
        <mxCell id="yhvQ6yoLqw5LFzrh1Ywp-22" value="" style="endArrow=classic;html=1;rounded=0;entryX=0.25;entryY=1;entryDx=0;entryDy=0;exitX=0.35;exitY=0.5;exitDx=0;exitDy=0;exitPerimeter=0;" parent="1" source="yhvQ6yoLqw5LFzrh1Ywp-20" target="yhvQ6yoLqw5LFzrh1Ywp-23" edge="1">
          <mxGeometry width="50" height="50" relative="1" as="geometry">
            <mxPoint x="490" y="498" as="sourcePoint" />
            <mxPoint x="300" y="259" as="targetPoint" />
          </mxGeometry>
        </mxCell>
        <mxCell id="yhvQ6yoLqw5LFzrh1Ywp-23" value="" style="rounded=0;whiteSpace=wrap;html=1;direction=south;" parent="1" vertex="1">
          <mxGeometry x="670" y="470" width="10" height="110" as="geometry" />
        </mxCell>
        <mxCell id="yhvQ6yoLqw5LFzrh1Ywp-24" value="" style="endArrow=none;dashed=1;html=1;dashPattern=1 3;strokeWidth=2;rounded=0;exitX=0.455;exitY=1;exitDx=0;exitDy=0;exitPerimeter=0;" parent="1" source="yhvQ6yoLqw5LFzrh1Ywp-23" edge="1">
          <mxGeometry width="50" height="50" relative="1" as="geometry">
            <mxPoint x="298" y="340" as="sourcePoint" />
            <mxPoint x="490" y="520" as="targetPoint" />
          </mxGeometry>
        </mxCell>
        <mxCell id="yhvQ6yoLqw5LFzrh1Ywp-25" value="" style="shape=mxgraph.arrows2.wedgeArrow;html=1;bendable=0;startWidth=6;fillColor=strokeColor;defaultFillColor=invert;defaultGradientColor=invert;rounded=0;" parent="1" edge="1">
          <mxGeometry width="100" height="100" relative="1" as="geometry">
            <mxPoint x="500" y="520" as="sourcePoint" />
            <mxPoint x="490" y="520" as="targetPoint" />
          </mxGeometry>
        </mxCell>
        <mxCell id="yhvQ6yoLqw5LFzrh1Ywp-26" value="Vote on available answers" style="text;html=1;strokeColor=none;fillColor=none;align=center;verticalAlign=middle;whiteSpace=wrap;rounded=0;" parent="1" vertex="1">
          <mxGeometry x="520" y="460" width="120" height="30" as="geometry" />
        </mxCell>
        <mxCell id="yhvQ6yoLqw5LFzrh1Ywp-27" value="Voting complete" style="text;html=1;strokeColor=none;fillColor=none;align=center;verticalAlign=middle;whiteSpace=wrap;rounded=0;" parent="1" vertex="1">
          <mxGeometry x="520" y="530" width="120" height="30" as="geometry" />
        </mxCell>
      </root>
    </mxGraphModel>
  </diagram>
</mxfile>
